<svg xmlns="http://www.w3.org/2000/svg" width="992.77" height="178.88" viewBox="0 0 992.77 178.88">
  <defs>
    <style>
      .a {
        fill: #1cbcff;
      }

      .b {
        fill: #fff;
      }

      .c {
        fill: #59b8f8;
      }
    </style>
  </defs>
  <g>
    <g>
      <path class="a" d="M179,127V-.07H51.93V37.54H75.14V23.16h80.65v80.65H127.08V51.86H0V179H127.08V141.37H103.86v14.37H23.21V75.09H51.93V127ZM75.14,75.09h28.72v28.72H75.14Z"/>
      <g>
        <path class="b" d="M348.75,95.48a32.64,32.64,0,0,0-8.14-6,33.11,33.11,0,0,0-4.63-2l1-.49a22.74,22.74,0,0,0,5.34-3.81,24.42,24.42,0,0,0,5.74-9.61,38,38,0,0,0,1.82-12A32.91,32.91,0,0,0,348,50.14a23.65,23.65,0,0,0-5.63-8.78c-5.5-5.33-14.72-9-27.11-9h-65V147.87h69.69a45,45,0,0,0,16-2.66A31.45,31.45,0,0,0,347.17,138a26.47,26.47,0,0,0,6-9.7,36.29,36.29,0,0,0,2.12-12.44,39.49,39.49,0,0,0-1.58-11.51A21.9,21.9,0,0,0,348.75,95.48Zm-25.5,26.76a11.79,11.79,0,0,1-4.29,2,24.77,24.77,0,0,1-6.17.7H277.3V101.46h35.78c4.27,0,7.8,1.22,9.85,2.92h0a8.81,8.81,0,0,1,2.72,3.93,16.47,16.47,0,0,1,.85,5.57,13.75,13.75,0,0,1-.81,4.92A7.76,7.76,0,0,1,323.25,122.24Zm-3-60.63a14.89,14.89,0,0,1,1,5.32,16.85,16.85,0,0,1-1,6,10.49,10.49,0,0,1-2.52,3.9,9.22,9.22,0,0,1-3.28,2,12.51,12.51,0,0,1-4.09.61H277.3V55.21H308a23.09,23.09,0,0,1,5.88.64,9.48,9.48,0,0,1,3.94,2A9.78,9.78,0,0,1,320.26,61.61Z"/>
        <polygon class="c" points="342.31 41.36 342.31 41.36 342.32 41.36 342.31 41.36"/>
        <polygon class="b" points="376.89 147.87 378.41 147.87 404.97 147.87 404.97 32.4 376.89 32.4 376.89 147.87"/>
        <polygon class="b" points="422.01 56.2 458.59 56.2 458.59 147.87 486.67 147.87 486.67 56.2 523.39 56.2 523.39 32.4 422.01 32.4 422.01 56.2"/>
        <polygon class="b" points="533.45 56.2 570.03 56.2 570.03 147.87 598.11 147.87 598.11 56.2 634.83 56.2 634.83 32.4 533.45 32.4 533.45 56.2"/>
        <path class="b" d="M746.07,87.9c2.75-4.76,4.32-11.68,4.33-20.4a53.59,53.59,0,0,0-1.25-12.36,28.49,28.49,0,0,0-4-9.4h0a24.68,24.68,0,0,0-10.93-9.86c-4.84-2.29-10.87-3.48-18.22-3.49H651.87V147.87h27.22v-43.7h27.16l21.92,43.7h31.09L732.66,98.7A22.46,22.46,0,0,0,746.07,87.9ZM721.76,77.51a4.85,4.85,0,0,1-1.26,1.56A9.31,9.31,0,0,1,717,80.75a19.77,19.77,0,0,1-5.13.61H679.23V56.2h31.23a18.73,18.73,0,0,1,7.62,1.3A8.44,8.44,0,0,1,720.45,59,7.42,7.42,0,0,1,722,61.18a7.9,7.9,0,0,1,.46,1.42,32.68,32.68,0,0,1,.68,6.89,26.81,26.81,0,0,1-.39,4.35A15.48,15.48,0,0,1,721.76,77.51Z"/>
        <polygon class="c" points="746.07 87.89 746.07 87.9 746.07 87.9 746.07 87.89"/>
        <polygon class="b" points="803.77 102.32 863.27 102.32 863.27 77.94 803.77 77.94 803.77 56.63 865.54 56.63 865.54 32.4 776.69 32.4 776.69 147.87 778.21 147.87 866.26 147.87 866.26 123.77 803.77 123.77 803.77 102.32"/>
      </g>
    </g>
    <polygon class="b" points="950.6 87.66 938.36 70.22 912.95 32.4 880.49 32.4 920.38 89.54 877.99 147.87 909.69 147.87 910.32 146.97 935.47 110.75 960.44 147.87 992.77 147.87 950.6 87.66"/>
    <polygon class="c" points="956.76 52.32 972.84 52.32 972.84 68.03 992.77 68.03 992.77 32.4 957.13 32.4 957.13 52.32 956.76 52.32"/>
  </g>
</svg>
